<?xml version="1.0" standalone="no"?><!DOCTYPE svg PUBLIC "-//W3C//DTD SVG 1.1//EN" "http://www.w3.org/Graphics/SVG/1.1/DTD/svg11.dtd"><svg t="1766569450920" class="icon" viewBox="0 0 2048 1024" version="1.1" xmlns="http://www.w3.org/2000/svg" p-id="60578" xmlns:xlink="http://www.w3.org/1999/xlink" width="512" height="256"><path d="M1819.733333 993.536V0h170.752v993.536h-170.752zM1402.453333 0a298.666667 298.666667 0 1 1 0 597.333333h-213.333333v396.202667h-170.666667V0h384z m0 170.666667h-213.333333v256h213.333333c70.485333 0 128-57.429333 128-128S1472.853333 170.666667 1402.368 170.666667zM394.24 509.44h189.013333L488.789333 249.685333 394.325333 509.44zM579.754667 0v0.256l361.386666 993.28H759.552L645.461333 679.936h-313.173333l-114.176 313.429333H36.522667L397.994667 0.256V0h181.76z" fill="#2B5672" p-id="60579"></path></svg>