<?xml version="1.0" standalone="no"?><!DOCTYPE svg PUBLIC "-//W3C//DTD SVG 1.1//EN" "http://www.w3.org/Graphics/SVG/1.1/DTD/svg11.dtd"><svg t="1766565713585" class="icon" viewBox="0 0 1024 1024" version="1.1" xmlns="http://www.w3.org/2000/svg" p-id="10480" xmlns:xlink="http://www.w3.org/1999/xlink" width="200" height="200"><path d="M832 704a64 64 0 0 1 64 64v128a64 64 0 0 1-64 64h-128a64 64 0 0 1-64-64v-128a64 64 0 0 1 64-64h128z m0 64h-128v128h128v-128z m-336.64 19.968H640v64H464.64L218.24 544H64v-64h50.688l320-320H512v64h-50.816l-256 256H704V448a64 64 0 0 1 64-64h128a64 64 0 0 1 64 64v128a64 64 0 0 1-64 64h-128a64 64 0 0 1-64-64v-32H300.224l195.136 243.968zM896 448h-128v128h128V448z m-192-384a64 64 0 0 1 64 64v128a64 64 0 0 1-64 64H576a64 64 0 0 1-64-64V128a64 64 0 0 1 64-64h128z m0 64H576v128h128V128z" fill="#454A59" p-id="10481"></path></svg>