<?xml version="1.0" standalone="no"?><!DOCTYPE svg PUBLIC "-//W3C//DTD SVG 1.1//EN" "http://www.w3.org/Graphics/SVG/1.1/DTD/svg11.dtd"><svg t="1766566316168" class="icon" viewBox="0 0 1246 1024" version="1.1" xmlns="http://www.w3.org/2000/svg" p-id="31780" width="311.5" height="256" xmlns:xlink="http://www.w3.org/1999/xlink"><path d="M316.38122844 655.38375781l99.38586656-258.78830156h36.89070562l105.91091063 258.78830156h-39.01192125l-30.18120844-78.39274969h-108.21657937l-28.4173725 78.39274969h-36.36040125z m74.66909343-106.26828937h87.73071l-27.01091343-71.671725q-12.35838656-32.60216156-18.35312625-53.66444813a329.975835 329.975835 0 0 1-13.94929782 49.42201782zM585.92547594 655.38375781V396.59545625h97.62202969q25.7658525 0 39.36929999 2.46706594 19.06788375 3.18182344 31.94504532 12.09323437t20.7510225 24.98192531a79.29196031 79.29196031 0 0 1 7.85080312 35.29979438q0 33.00565312-21.00464531 55.86636188t-75.90262781 22.86070968H620.17619v105.20768157h-34.25071406z m34.25071406-135.74626968h66.86440406q33.19010719 0 47.12787657-12.35838563t13.98388312-34.76949094q0-16.23191063-8.20818187-27.80636906a38.37786281 38.37786281 0 0 0-21.62717625-15.26352937q-8.64625875-2.30566875-31.95657375-2.30566969H620.17619v92.50344469zM832.88569438 655.38375781V396.59545625h34.25071406v258.78830156h-34.25071407z" fill="#1296db" p-id="31781"></path><path d="M889.75502281 890.06628781H616.16432563a30.80373938 30.80373938 0 0 1 0-61.59595031h273.59069718c137.29106719 0 249.01226438-111.69814031 249.01226344-249.01226344 0-125.3707575-93.6678075-231.58140563-217.88573062-247.05244593l-21.90385688-2.73221719-4.43841281-21.63870469c-25.51222875-124.27556531-136.27657312-214.4272275-263.36505375-214.4272275-148.25452406 0-268.86407531 120.60955125-268.86407531 268.86407531 0 3.00889781 0.06916969 6.21377813 0.20750999 10.09883063l1.25658938 35.3804925-35.26520906-3.66601406a216.32940469 216.32940469 0 0 0-22.26123469-1.15283438c-117.25480219 0-212.65186219 95.39705906-212.65186219 212.65186219s95.39705906 212.65186219 212.65186219 212.65186125h74.09267719a30.80373938 30.80373938 0 0 1 0 61.59595031h-74.09267719C155.03050344 890.06628781 32.04611375 767.03578437 32.04611375 615.81847531c0-149.56875562 120.3559275-271.55017969 269.30215219-274.20169875A330.48308156 330.48308156 0 0 1 841.2552725 107.40690781a331.82037 331.82037 0 0 1 108.53937375 167.31087938c144.24265969 28.24444688 250.5224775 155.632665 250.5224775 304.76334281a310.58515781 310.58515781 0 0 1-310.56210094 310.58515781z" fill="#1296db" p-id="31782"></path><path d="M686.40653563 991.99991937a30.68845594 30.68845594 0 0 1-20.80866376-8.06984156L531.22347594 860.66900656l127.203765-132.48374719a30.80373938 30.80373938 0 0 1 44.43024375 42.65487844l-83.54592 87.02748094 87.91516312 80.64077719a30.80373938 30.80373938 0 0 1-20.82019218 53.49152343z" fill="#1296db" p-id="31783"></path></svg>