<?xml version="1.0" standalone="no"?><!DOCTYPE svg PUBLIC "-//W3C//DTD SVG 1.1//EN" "http://www.w3.org/Graphics/SVG/1.1/DTD/svg11.dtd"><svg t="1767841889881" class="icon" viewBox="0 0 1024 1024" version="1.1" xmlns="http://www.w3.org/2000/svg" p-id="19083" xmlns:xlink="http://www.w3.org/1999/xlink" width="256" height="256"><path d="M436.107519 704.573432c-10.271913 0-18.649007-8.377094-18.649007-18.649007v-327.10557c0-4.986365 1.894819-9.673549 5.485002-13.263732 3.490456-3.490456 8.177639-5.485002 13.164005-5.485002l110.198675 0.099727c59.337748 2.194001 107.007402 51.259836 107.007402 111.096221 0 59.936112-47.569926 108.90222-107.007402 111.096222l-91.449942 0.099727v123.36268c0 10.37164-8.377094 18.748734-18.748733 18.748734z m110.098948-179.708609c38.195559-3.191274 67.515388-34.804831 67.515387-73.598754s-29.319829-70.40748-67.515387-73.598753l-91.449942-0.199455v147.596416l91.449942-0.199454zM801.70783 690.611609c-10.271913 0-18.649007-8.377094-18.649006-18.649007v-327.10557c0-4.986365 1.894819-9.673549 5.485001-13.263732 3.490456-3.490456 8.177639-5.485002 13.164005-5.485002l110.198676 0.099727c59.337748 2.194001 107.007402 51.259836 107.007401 111.096221 0 59.936112-47.569926 108.90222-107.007401 111.096221l-91.449942 0.099728v123.36268c-0.099727 10.37164-8.476821 18.748734-18.748734 18.748734z m110.098948-179.608882c38.195559-3.191274 67.515388-34.804831 67.515388-73.598753s-29.319829-70.40748-67.515388-73.598754l-91.449941-0.199455v147.596417l91.449941-0.199455zM26.228282 704.573432c-5.983638 0-11.668095-2.892092-15.158551-7.679003-3.889365-5.385275-4.687183-12.465914-1.994546-18.649006L153.978964 351.040125c0.099727-0.099727 0.398909-0.498637 0.598364-0.797819 0.398909-0.498637 0.897546-0.997273 1.296455-1.695364 0.299182-0.398909 0.598364-0.797818 0.797818-1.296455 0.398909-0.698091 0.797818-1.196728 1.097-1.595637 0.997273-0.997273 2.293728-1.795092 3.789638-2.692637 0.797818-0.398909 1.396182-0.897546 1.795092-1.296455h0.099727l0.398909-0.199455c1.196728-0.498637 2.792365-0.698091 4.388002-0.897546 0.698091-0.099727 1.396182-0.199455 1.894819-0.398909 0.299182-0.099727 0.698091-0.199455 0.797818-0.199455 0.199455 0 0.698091 0.099727 1.097001 0.199455l1.495909 0.299182 0.598364 0.099727c1.595637 0.299182 2.991819 0.498637 4.08882 0.897546h0.099727c0.398909 0.299182 0.897546 0.698091 1.595637 1.097 1.49591 0.797818 2.991819 1.795092 4.188547 2.892092 0.099727 0.099727 0.199455 0.299182 0.299182 0.498637 0.299182 0.498637 0.598364 0.997273 1.097 1.595637 0.299182 0.299182 0.498637 0.698091 0.797819 0.997273 0.698091 0.897546 1.296455 1.695364 1.695364 2.393455l143.806778 326.40748c2.094273 4.587456 2.194001 9.673549 0.398909 14.360732-1.795092 4.687183-5.285547 8.377094-9.773276 10.37164-2.393455 1.097-4.986365 1.595637-7.579275 1.595637-2.293728 0-4.587456-0.398909-6.68173-1.196727-4.587456-1.795092-8.377094-5.385275-10.37164-9.873004l-40.589014-91.848851H84.269575L43.281652 693.403974c-2.692637 6.083366-8.476821 10.271913-15.158551 10.970003-0.598364 0.099727-1.196728 0.199455-1.894819 0.199455z m74.496299-141.014414h140.216595l-70.00857-158.56642-70.208025 158.56642z" fill="#13227a" p-id="19084" data-spm-anchor-id="a313x.search_index.0.i6.7b9e3a81c0Wd9X" class="selected"></path><path d="M475.69926 911.806778h74.895208c7.180366 0 12.96455 5.784184 12.96455 12.96455s-5.784184 12.96455-12.96455 12.96455h-74.895208c-7.180366 0-12.96455-5.784184-12.96455-12.96455s5.784184-12.96455 12.96455-12.96455z" fill="#212121" p-id="19085"></path><path d="M475.69926 932.84924c-4.388002 0-7.978185-3.590183-7.978185-7.978184s3.590183-7.978185 7.978185-7.978185h74.895208c4.388002 0 7.978185 3.590183 7.978185 7.978185s-3.590183 7.978185-7.978185 7.978184h-74.895208zM558.472926 99.428126h-90.751851c-2.792365 0-5.086093 2.293728-5.086093 5.086093s2.293728 5.086093 5.086093 5.086093h90.751851c2.792365 0 5.086093-2.293728 5.086092-5.086093s-2.194001-5.086093-5.086092-5.086093z m0 0" fill="#212121" p-id="19086"></path><path d="M467.820802 104.613946c-0.099727 0-0.099727 0-0.099727-0.099727s0.099727-0.099727 0.099727-0.099727h90.751851c0.099727 0 0.099727 0.099727 0.099727 0.099727 0 0.099727 0 0.099727-0.099727 0.099727h-90.751851z" fill="#212121" p-id="19087"></path><path d="M845.188937 310.949747c-11.069731 0-20.045189-8.975458-20.144917-20.045189l-0.398909-174.821971c0-0.598364 0-1.097-0.099727-1.695365-2.194001-16.155824-9.573822-31.414102-20.843008-42.982469-13.961823-14.360732-33.508376-22.638099-53.553564-22.837554h-474.701987c-20.244644 0.299182-39.093105 8.476821-53.154655 23.037008-14.06155 14.560187-21.640826 33.608103-21.341644 53.852747v165.347877c0 11.069731-9.075185 20.144916-20.144916 20.144916s-20.144916-9.075185-20.144917-20.144916v-166.544605c-0.099727-31.015193 11.767822-60.335021 33.408649-82.374757C215.710168 19.746007 244.730814 7.280093 275.64628 6.781457h474.701986c29.319829 0.498637 57.243475 11.967277 78.585119 32.21192 21.142189 20.144916 34.007012 47.071289 36.101286 75.992209v0.199455l0.099727 175.61979c0 5.385275-2.094273 10.37164-5.883911 14.261005-3.68991 3.789638-8.676276 5.883911-14.06155 5.883911zM275.746007 1024c-64.124659-1.097-115.783405-54.151928-114.985586-118.376315V739.976626c0-11.069731 9.075185-20.144916 20.144916-20.144916s20.144916 9.075185 20.144916 20.144916v166.444878c-0.299182 19.945462 7.579275 39.691469 21.541099 53.952473 13.961823 14.360732 33.508376 22.638099 53.553564 22.837554h475.001169c20.144916-0.199455 39.691469-8.476821 53.653292-22.837554 13.961823-14.360732 21.84028-34.007012 21.541098-54.052201l-0.299182-166.744059c0-5.285547 1.994546-10.271913 5.784184-13.961823 3.68991-3.68991 8.676276-5.784184 13.961823-5.784184 10.870277 0 19.746007 8.87573 19.746007 19.746007l0.099728 166.045968c0.797818 64.224386-50.7612 117.279314-114.985587 118.376315H275.746007z" fill="#13227a" p-id="19088" data-spm-anchor-id="a313x.search_index.0.i5.7b9e3a81c0Wd9X" class="selected"></path></svg>