<?xml version="1.0" standalone="no"?><!DOCTYPE svg PUBLIC "-//W3C//DTD SVG 1.1//EN" "http://www.w3.org/Graphics/SVG/1.1/DTD/svg11.dtd"><svg t="1767841432180" class="icon" viewBox="0 0 1024 1024" version="1.1" xmlns="http://www.w3.org/2000/svg" p-id="7522" xmlns:xlink="http://www.w3.org/1999/xlink" width="256" height="256"><path d="M741.649067 16.725333c41.119289 0 74.5472 32.676978 75.207111 73.250134V506.151822c0 15.291733-12.515556 27.670756-27.921067 27.670756a27.807289 27.807289 0 0 1-27.943822-27.010845V91.204267a19.2512 19.2512 0 0 0-18.773333-19.137423H157.058844a19.2512 19.2512 0 0 0-19.342222 18.568534V757.259378H445.326222a27.670756 27.670756 0 0 1 0 55.318755H137.693867l0.022755 129.820445c0 10.376533 8.351289 18.8416 18.773334 19.137422H513.820444c15.451022 0 27.943822 12.401778 27.943823 27.670756 0 15.064178-12.151467 27.306667-27.283911 27.670755H157.058844c-41.119289 0-74.5472-32.676978-75.207111-73.272889V91.204267c0-40.709689 32.995556-73.796267 73.955556-74.456178h585.841778z m-15.041423 566.044445c116.3264 0 210.625422 93.366044 210.625423 208.531911 0 115.188622-94.299022 208.554667-210.625423 208.554667s-210.625422-93.366044-210.625422-208.554667c0-115.165867 94.299022-208.531911 210.625422-208.531911z m14.563556 72.362666H711.566222a12.6976 12.6976 0 0 0-12.037689 10.308267l-0.2048 2.207289v26.555733l-1.592889 0.455111c-5.5296 1.615644-10.922667 3.709156-16.088177 6.257778l-5.074489 2.685156-19.000889-18.796089-0.386845-0.364089a12.834133 12.834133 0 0 0-15.837866-1.046756l-1.706667 1.410845-20.639289 20.434489-0.364089 0.386844a12.515556 12.515556 0 0 0-1.046755 15.610311l1.410844 1.706667 18.978134 18.864356-0.796445 1.410844c-2.776178 5.006222-5.074489 10.24-6.940444 15.655822l-1.683911 5.461334h-27.306667a12.6976 12.6976 0 0 0-11.969422 10.331022l-0.2048 2.207289v29.354666c0.227556 5.961956 4.687644 10.899911 10.4448 11.923911l2.207289 0.182045h26.8288l0.455111 1.592889c1.683911 5.5296 3.822933 10.877156 6.371555 15.951644l2.6624 5.006222-18.978133 18.796089-0.364089 0.386845a12.515556 12.515556 0 0 0-1.069511 15.701333l1.4336 1.683911 20.639289 20.411734 0.386844 0.364088c4.414578 3.982222 10.990933 4.323556 15.7696 1.046756l1.706667-1.410844 19.069155-18.796089 1.410845 0.796444c5.006222 2.685156 10.285511 5.006222 15.7696 6.849422l5.575111 1.683911v27.0336c0.227556 5.916444 4.687644 10.8544 10.4448 11.8784l2.207289 0.182045h29.627733a12.6976 12.6976 0 0 0 12.060445-10.331022l0.2048-2.184534V888.376889l1.592889-0.455111c5.597867-1.661156 10.990933-3.777422 16.110933-6.280534l5.051733-2.639644 18.978134 18.773333 0.386844 0.386845a12.834133 12.834133 0 0 0 15.860622 1.046755l1.706667-1.4336 20.639289-20.411733 0.364089-0.386844a12.515556 12.515556 0 0 0 1.046755-15.633067l-1.410844-1.683911-18.978134-18.887111 0.773689-1.388089c2.730667-4.960711 5.074489-10.194489 6.940445-15.633067l1.706666-5.506844h27.306667a12.6976 12.6976 0 0 0 11.946667-10.331023l0.227555-2.184533v-29.354667a12.652089 12.652089 0 0 0-10.467555-11.855644l-2.207289-0.2048h-26.806045l-0.455111-1.570133a98.554311 98.554311 0 0 0-6.326044-15.9744l-2.730667-5.051734 19.000889-18.796089 0.364089-0.386844a12.515556 12.515556 0 0 0 1.046756-15.633067l-1.410845-1.683911-20.639289-20.434489-0.386844-0.364089a12.834133 12.834133 0 0 0-15.792356-1.046755l-1.706666 1.410844-19.0464 18.796089-1.4336-0.796444a100.647822 100.647822 0 0 0-15.815112-6.917689l-5.506844-1.683911v-27.0336a12.674844 12.674844 0 0 0-12.652089-12.060445z m-291.817244 204.276623c15.428267 0 27.943822 12.379022 27.943822 27.648 0 15.291733-12.515556 27.670756-27.943822 27.670755a27.807289 27.807289 0 0 1-27.943823-27.670755c0-15.268978 12.515556-27.648 27.943823-27.648z m277.230933-123.812978h0.932978c30.651733 0.500622 55.364267 25.258667 55.364266 55.7056 0 30.765511-25.213156 55.728356-56.297244 55.728355-31.061333 0-56.251733-24.940089-56.251733-55.682844a55.933156 55.933156 0 0 1 52.565333-55.569067l3.6864-0.113777v-0.068267zM296.96 213.219556c9.921422 0 18.796089 6.144 22.209422 15.405511l45.101511 122.4704a17.294222 17.294222 0 0 1-16.315733 23.096889h-7.736889c-10.217244 0-19.273956-6.485333-22.459733-16.088178l-5.916445-17.749334H250.971022l-6.075733 17.885867a23.620267 23.620267 0 0 1-22.414222 15.951645h-7.350045a16.7936 16.7936 0 0 1-15.951644-22.641778l45.624889-122.993778c3.413333-9.216 12.288-15.337244 22.209422-15.337244z m161.951289 0c51.291022 0 67.219911 15.792356 67.219911 57.298488 0 45.238044-18.500267 59.847111-67.219911 59.847112h-16.634311v20.753066a23.210667 23.210667 0 0 1-23.301689 23.074134 23.210667 23.210667 0 0 1-23.324445-23.074134V236.657778c0-12.925156 10.581333-23.415467 23.665778-23.415467z m163.453155 0c51.291022 0 67.219911 15.792356 67.219912 57.298488 0 45.238044-18.500267 59.847111-67.219912 59.847112h-16.634311v20.753066a23.210667 23.210667 0 0 1-23.324444 23.074134 23.210667 23.210667 0 0 1-23.301689-23.074134V236.657778c0-12.925156 10.581333-23.415467 23.643022-23.415467zM283.056356 252.905244h-2.821689l-16.861867 50.335289h36.295111l-16.611555-50.335289z m169.073777-4.164266h-9.853155v44.987733h9.8304c19.456 0 26.487467-5.097244 26.487466-22.027378 0-17.863111-7.509333-22.983111-26.487466-22.983111z m163.4304 0h-9.8304v44.987733h9.8304c19.433244 0 26.464711-5.097244 26.464711-22.027378 0-17.863111-7.509333-22.983111-26.464711-22.983111z" fill="#2c2c2c" p-id="7523"></path></svg>