<?xml version="1.0" standalone="no"?><!DOCTYPE svg PUBLIC "-//W3C//DTD SVG 1.1//EN" "http://www.w3.org/Graphics/SVG/1.1/DTD/svg11.dtd"><svg t="1766565977110" class="icon" viewBox="0 0 1024 1024" version="1.1" xmlns="http://www.w3.org/2000/svg" p-id="14242" xmlns:xlink="http://www.w3.org/1999/xlink" width="200" height="200"><path d="M402.2272 0.546133a146.3296 146.3296 0 0 0-146.363733 146.363734v85.981866h219.5456c19.968 0 36.352 29.149867 36.352 49.152H146.363733A146.3296 146.3296 0 0 0 0 428.373333v193.501867a146.3296 146.3296 0 0 0 146.363733 146.363733h60.381867v-137.147733A145.885867 145.885867 0 0 1 352.597333 484.693333h268.663467a145.92 145.92 0 0 0 146.363733-145.92V146.909867A146.3296 146.3296 0 0 0 621.2608 0.546133h-219.0336z m-36.864 82.397867c20.48 0 36.864 6.144 36.864 36.317867 0 30.208-16.384 45.602133-36.864 45.602133-19.933867 0-36.317867-15.36-36.317867-45.533867 0-30.208 16.384-36.386133 36.352-36.386133z" fill="#3C78AA" p-id="14243"></path><path d="M816.708267 256.443733v137.147734a145.851733 145.851733 0 0 1-145.851734 146.295466h-268.629333a145.851733 145.851733 0 0 0-146.363733 145.851734v191.8976A146.363733 146.363733 0 0 0 402.2272 1024h219.0336a146.363733 146.363733 0 0 0 146.363733-146.295467v-86.016h-219.579733c-19.968 0-36.283733-29.149867-36.283733-49.083733h365.397333a146.363733 146.363733 0 0 0 146.3296-146.363733V402.773333a146.363733 146.363733 0 0 0-146.3296-146.3296h-60.450133zM323.584 488.209067l-0.341333 0.477866c1.058133-0.238933 2.218667-0.136533 3.413333-0.477866h-3.072z m334.506667 371.5072c19.968 0 36.352 15.36 36.352 45.568a36.317867 36.317867 0 0 1-36.317867 36.317866c-20.48 0-36.864-6.144-36.864-36.317866 0-30.208 16.384-45.568 36.864-45.568z" fill="#FDD835" p-id="14244"></path></svg>