<?xml version="1.0" standalone="no"?><!DOCTYPE svg PUBLIC "-//W3C//DTD SVG 1.1//EN" "http://www.w3.org/Graphics/SVG/1.1/DTD/svg11.dtd"><svg t="1766566054724" class="icon" viewBox="0 0 1170 1024" version="1.1" xmlns="http://www.w3.org/2000/svg" p-id="16188" xmlns:xlink="http://www.w3.org/1999/xlink" width="228.515625" height="200"><path d="M781.73401 80.42a59.065 59.065 0 0 1-15.717 40.425 52.12 52.12 0 0 1-39.62 16.886 40.863 40.863 0 0 1-35.527-14.62 167.473 167.473 0 0 1-22.515-47.88 48.977 48.977 0 0 0-10.234-19.518 22.953 22.953 0 0 0-18.421-6.726 24.123 24.123 0 0 0-21.93 11.477 104.606 104.606 0 0 0-13.012 30.337l-66.96 214.403h92.91l-15.716 49.854H522.74001L426.39401 664.49a1856.306 1856.306 0 0 1-69.007 190.06 356.875 356.875 0 0 1-86.77 119.3 207.166 207.166 0 0 1-142.107 49.854 151.025 151.025 0 0 1-95.03-26.316A75.147 75.147 0 0 1 0.00001 938.032a62.94 62.94 0 0 1 17.763-43.86 58.919 58.919 0 0 1 45.761-18.86 48.246 48.246 0 0 1 44.372 17.544 107.311 107.311 0 0 1 13.012 45.834c2.047 24.27 13.012 37.062 32.09 37.062a53.29 53.29 0 0 0 46.493-30.337 459.289 459.289 0 0 0 37.573-94.372l154.388-495.547h-97.516l15.059-49.854h97.661l10.235-35.088a831.442 831.442 0 0 1 47.807-128.802 286.26 286.26 0 0 1 77.194-98.393A190.572 190.572 0 0 1 670.32901 0.229a163.16 163.16 0 0 1 54.679 9.43 101.098 101.098 0 0 1 41.667 26.974 67.033 67.033 0 0 1 15.059 43.787z m388.015 283.849a216.596 216.596 0 0 1-10.234 66.74h-53.29a237.868 237.868 0 0 0 10.965-68.056 30.994 30.994 0 0 0-4.093-15.498 16.594 16.594 0 0 0-16.375-8.114 23.465 23.465 0 0 0-15.058 4.752c-10.965 9.43-20.468 19.518-30.775 29.679L947.74401 480.279l46.492 144.3a334.726 334.726 0 0 0 15.716 39.108c5.483 10.088 11.623 15.497 19.153 15.497 13.012 0 24.561-10.088 34.868-29.24a274.345 274.345 0 0 0 21.93-51.901h49.855a296.348 296.348 0 0 1-43.056 96.42 186.625 186.625 0 0 1-56.726 54.605 117.91 117.91 0 0 1-57.384 16.886 78.802 78.802 0 0 1-66.96-29.679 279.535 279.535 0 0 1-40.278-84.284l-21.199-68.056-120.907 127.413a144.738 144.738 0 0 1-88.16 54.606c-32.821 0-48.538-20.907-48.538-63.378a226.099 226.099 0 0 1 19.153-90.352h60.088a305.778 305.778 0 0 0-20.468 72.15c0 11.477 3.436 16.886 10.234 16.886s15.716-6.725 30.775-21.93l141.449-147.662-27.34-84.942c-4.093-12.793-8.187-25.586-13.011-38.451a53.07 53.07 0 0 0-12.281-19.518 26.608 26.608 0 0 0-18.421-7.31c-21.2 0-38.963 26.974-53.29 80.41h-50.586a434.361 434.361 0 0 1 41.01-95.03 190.06 190.06 0 0 1 51.9-57.968 104.753 104.753 0 0 1 61.478-20.25 88.305 88.305 0 0 1 69.664 30.337 237.43 237.43 0 0 1 43.056 82.896l8.845 27.632 85.381-90.352a138.452 138.452 0 0 1 89.475-51.17 49.343 49.343 0 0 1 50.585 24.927 181.654 181.654 0 0 1 9.503 51.316z" fill="#0970E6" p-id="16189"></path></svg>