<?xml version="1.0" standalone="no"?><!DOCTYPE svg PUBLIC "-//W3C//DTD SVG 1.1//EN" "http://www.w3.org/Graphics/SVG/1.1/DTD/svg11.dtd"><svg t="1767842075363" class="icon" viewBox="0 0 1024 1024" version="1.1" xmlns="http://www.w3.org/2000/svg" p-id="26559" xmlns:xlink="http://www.w3.org/1999/xlink" width="256" height="256"><path d="M768 166.4V128c0-28.16-23.04-51.2-51.2-51.2H307.2c-28.16 0-51.2 23.04-51.2 51.2v145.92l-76.8 15.36V102.4c0-56.32 46.08-102.4 102.4-102.4h460.8c56.32 0 102.4 46.08 102.4 102.4v48.64l-76.8 15.36zM256 785.92v7.68c0 28.16 23.04 51.2 51.2 51.2h409.6c28.16 0 51.2-23.04 51.2-51.2v-115.2l76.8-15.36V921.6c0 56.32-46.08 102.4-102.4 102.4H281.6c-56.32 0-102.4-46.08-102.4-102.4v-117.76l76.8-17.92zM512 972.8c28.16 0 51.2-23.04 51.2-51.2s-23.04-51.2-51.2-51.2-51.2 23.04-51.2 51.2 23.04 51.2 51.2 51.2z" fill="#8D8E8E" p-id="26560"></path><path d="M844.8 609.28L179.2 744.96c-40.96 12.8-84.48-10.24-99.84-51.2-2.56-10.24-2.56-17.92-2.56-28.16v-179.2c2.56-58.88 43.52-112.64 102.4-125.44l665.6-133.12c40.96-12.8 84.48 7.68 99.84 48.64 2.56 10.24 5.12 17.92 2.56 28.16v179.2c-2.56 58.88-43.52 110.08-102.4 125.44z m-517.12-204.8l-66.56 12.8L189.44 665.6l56.32-10.24 12.8-56.32 69.12-12.8 12.8 51.2 58.88-10.24-71.68-222.72z m192-35.84l-81.92 15.36v232.96l56.32-10.24v-76.8l28.16-5.12c48.64-10.24 92.16-43.52 92.16-97.28 0-61.44-43.52-69.12-94.72-58.88z m220.16-43.52l-81.92 15.36v232.96l56.32-10.24v-76.8l28.16-5.12c48.64-10.24 92.16-43.52 92.16-97.28 0-58.88-43.52-69.12-94.72-58.88z m0 110.08l-25.6 5.12v-66.56l23.04-5.12c28.16-5.12 43.52 0 43.52 23.04s-17.92 43.52-40.96 43.52z m-220.16 43.52l-25.6 5.12v-66.56l23.04-5.12c28.16-5.12 40.96 0 40.96 23.04 2.56 23.04-15.36 43.52-38.4 43.52z m-243.2 53.76c5.12-23.04 12.8-53.76 17.92-79.36h2.56c5.12 23.04 12.8 48.64 17.92 71.68l5.12 17.92-48.64 10.24 5.12-20.48z" fill="#1296db" p-id="26561" data-spm-anchor-id="a313x.search_index.0.i9.7b9e3a81c0Wd9X" class="selected"></path></svg>