<?xml version="1.0" standalone="no"?><!DOCTYPE svg PUBLIC "-//W3C//DTD SVG 1.1//EN" "http://www.w3.org/Graphics/SVG/1.1/DTD/svg11.dtd"><svg t="1766566383730" class="icon" viewBox="0 0 1024 1024" version="1.1" xmlns="http://www.w3.org/2000/svg" p-id="32879" width="256" height="256" data-spm-anchor-id="a313x.search_index.0.i13.24253a81IaycZi" xmlns:xlink="http://www.w3.org/1999/xlink"><path d="M896 224v704c0 52.9408-43.008 96-96 96H96A96.1024 96.1024 0 0 1 0 928V224C0 171.0592 43.008 128 96 128h704c52.9408 0 96 43.008 96 96zM96 192a32.0512 32.0512 0 0 0-32 32V384h768V224a32.0512 32.0512 0 0 0-32-32H96z m704 768c17.664 0 32-14.336 32-32V448h-768v480c0 17.664 14.336 32 32 32h704zM729.6 256v64H665.6V256h64z m-174.08 0v64H491.52V256h64z m-168.96 0v64H322.56V256h64zM224 256v64h-64V256h64z m704-256C980.9408 0 1024 43.008 1024 96v704c0 52.9408-43.008 96-96 96v-64c17.664 0 32-14.336 32-32V96a32.0512 32.0512 0 0 0-32-32H224a32.0512 32.0512 0 0 0-32 32H128C128 43.0592 171.008 0 224 0h704zM291.1232 599.8592L204.8 819.2h27.0336l23.3472-61.44h100.7616l23.3472 61.44h27.3408l-86.3232-219.3408z m-27.9552 136.704l42.0864-109.6704h1.2288l41.472 109.6704z m165.5808-136.704V819.2h25.1904v-89.7024h64.2048c50.3808 0 75.8784-21.8112 75.8784-65.1264 0-43.008-25.1904-64.512-75.5712-64.512z m25.1904 21.8112h62.976c17.5104 0 30.4128 3.3792 39.0144 10.752 8.6016 6.4512 12.9024 17.2032 12.9024 31.9488s-4.3008 25.4976-12.5952 32.5632c-8.6016 7.0656-21.504 10.752-39.3216 10.752h-62.976z m173.8752-21.8112V819.2h24.8832v-219.3408z" fill="#333333" p-id="32880"></path></svg>