<?xml version="1.0" standalone="no"?><!DOCTYPE svg PUBLIC "-//W3C//DTD SVG 1.1//EN" "http://www.w3.org/Graphics/SVG/1.1/DTD/svg11.dtd"><svg t="1766565837536" class="icon" viewBox="0 0 1024 1024" version="1.1" xmlns="http://www.w3.org/2000/svg" p-id="12289" xmlns:xlink="http://www.w3.org/1999/xlink" width="200" height="200"><path d="M832 217.6h42.666667c17.066667 0 34.133333-12.8 34.133333-34.133333s-12.8-34.133333-34.133333-34.133334h-119.466667c-17.066667 0-34.133333 12.8-34.133333 34.133334v119.466666c0 8.533333 4.266667 17.066667 8.533333 21.333334 4.266667 4.266667 12.8 8.533333 21.333333 8.533333 17.066667 0 34.133333-12.8 34.133334-34.133333V256c106.666667 115.2 128 285.866667 55.466666 422.4-81.066667 157.866667-264.533333 234.666667-435.2 183.466667-8.533333-4.266667-17.066667 0-25.6 4.266666-8.533333 4.266667-12.8 12.8-17.066666 21.333334-4.266667 8.533333 0 17.066667 4.266666 25.6 4.266667 8.533333 12.8 12.8 21.333334 17.066666 38.4 12.8 81.066667 17.066667 123.733333 17.066667 183.466667 0 349.866667-115.2 413.866667-290.133333 51.2-153.6 17.066667-324.266667-93.866667-439.466667zM281.6 695.466667c-17.066667 0-34.133333 12.8-34.133333 34.133333v51.2c-115.2-119.466667-140.8-298.666667-64-439.466667 81.066667-153.6 256-230.4 422.4-187.733333 8.533333 4.266667 17.066667 0 25.6-4.266667 4.266667-8.533333 8.533333-12.8 12.8-21.333333 4.266667-17.066667-4.266667-34.133333-21.333334-38.4-34.133333-8.533333-72.533333-12.8-106.666666-12.8-183.466667 0-345.6 115.2-409.6 285.866667-64 153.6-25.6 332.8 89.6 452.266666h-34.133334c-12.8 0-21.333333 4.266667-29.866666 17.066667-4.266667 8.533333-4.266667 21.333333 0 29.866667 4.266667 8.533333 17.066667 17.066667 29.866666 17.066666h119.466667c8.533333 0 17.066667-4.266667 21.333333-8.533333 4.266667-4.266667 8.533333-12.8 8.533334-21.333333V725.333333c4.266667-17.066667-12.8-29.866667-29.866667-29.866666z" fill="#3A3A3A" p-id="12290"></path><path d="M418.133333 699.733333c-4.266667 0-8.533333 0-12.8-4.266666-8.533333-4.266667-12.8-12.8-12.8-25.6V354.133333c0-8.533333 4.266667-21.333333 12.8-25.6 8.533333-4.266667 21.333333-4.266667 29.866667 0l273.066667 145.066667c8.533333 4.266667 12.8 12.8 17.066666 25.6 0 8.533333-4.266667 21.333333-12.8 25.6l-273.066666 170.666667c-12.8 4.266667-17.066667 4.266667-21.333334 4.266666z m29.866667-298.666666v217.6l187.733333-119.466667-187.733333-98.133333z m0 0" fill="#3A3A3A" p-id="12291"></path></svg>